<svg width="102" height="23" viewBox="0 0 102 23" fill="none" xmlns="http://www.w3.org/2000/svg">
<path d="M12.7978 7.49922C12.92 7.01057 12.9298 6.98247 13.3085 7.03256C13.4911 7.04416 13.6743 7.04416 13.857 7.03256C14.386 7.03256 14.4861 6.93361 14.5631 6.42175C14.8282 4.68948 15.3669 3.0916 17.1285 2.26822C17.9494 1.89318 18.8131 1.90051 19.6463 2.04955C20.7054 2.24012 21.1122 3.49473 20.3573 4.20328C20.1129 4.43661 19.6109 4.55266 19.2725 4.48914C19.0025 4.43905 18.7838 4.07867 18.5725 3.77815C18.4699 3.634 18.3685 3.3176 18.3172 3.32859C18.0985 3.37013 17.9287 3.34569 17.7063 3.61812C17.3081 4.12021 17.2592 4.8263 17.1077 5.45056C16.9856 5.9392 16.9721 6.44496 16.8976 7.03867H19.4875C19.4288 7.48945 19.3824 7.84372 19.325 8.27984H16.8426C16.7119 9.86795 16.5983 11.3864 16.4615 12.8988C16.3064 14.5969 16.2441 16.3194 15.9264 17.982C15.5599 19.8682 14.8062 21.6139 12.6549 22.1001C12.0123 22.2455 11.2586 22.3065 10.6197 22.0708C10.4169 21.995 10.0284 21.7263 9.94535 21.5247C9.8648 21.3142 9.82689 21.0899 9.83381 20.8646C9.84073 20.6394 9.89235 20.4178 9.98567 20.2127C10.23 19.7118 10.6637 19.768 11.0986 19.8046C11.8315 19.8682 11.8181 20.4497 11.8633 21.2034C12.2187 21.0869 12.5302 20.8649 12.7563 20.5669C13.0422 20.2005 13.2254 19.4785 13.2902 18.9092C13.5418 16.6993 13.7361 14.482 13.9388 12.266C14.0415 11.1372 14.0806 9.99989 14.221 8.87599C14.2821 8.38734 14.0989 8.30671 13.7092 8.31527C13.3854 8.32382 13.0629 8.31527 12.6561 8.31527C12.705 8.0233 12.7526 7.76065 12.7978 7.49311V7.49922Z" fill="white"/>
<path d="M91.2861 14.1705C91.1859 15.1893 90.6338 15.9235 89.8873 16.4097C87.6628 17.8561 84.7333 17.7144 82.9241 15.8294C82.2632 15.1327 81.8561 14.2338 81.7684 13.2775C81.5986 11.7162 81.5339 10.1257 82.4916 8.75744C84.1811 6.34107 86.8675 6.03444 89.1031 7.2072C90.5116 7.94873 91.3289 9.3084 91.3667 11.0003C91.3777 11.4646 91.3667 11.93 91.3667 12.4577H83.7438C83.4921 14.3696 84.7822 15.5118 86.3385 15.6266C87.5382 15.7122 88.6498 15.5179 89.3327 14.3403C89.3926 14.2377 89.6039 14.1827 89.7468 14.1766C90.2355 14.1619 90.7229 14.1705 91.2861 14.1705ZM83.6949 10.9808H89.5697C89.5147 8.65971 88.0109 8.07944 86.5694 8.10387C84.8787 8.13197 83.6607 9.38414 83.6949 10.9808Z" fill="white"/>
<path d="M31.4627 12.3579H23.6577C23.4207 13.9533 24.4566 15.3264 26.0545 15.5255C27.3678 15.6892 28.5637 15.4889 29.3382 14.2318C29.3828 14.1814 29.4372 14.1408 29.4982 14.1124C29.5591 14.084 29.6253 14.0685 29.6925 14.0669C30.1995 14.0486 30.7065 14.0584 31.2867 14.0584C31.2061 14.5538 31.0208 15.0263 30.7431 15.4444C30.4655 15.8625 30.1019 16.2167 29.6766 16.4833C28.6913 17.1374 27.5165 17.4452 26.337 17.3583C25.1575 17.2714 24.0405 16.7947 23.1617 16.0032C21.9401 14.8915 21.6102 13.3865 21.653 11.7947C21.6709 11.2477 21.7429 10.7039 21.868 10.1711C22.3933 7.8806 24.4334 6.47451 26.8156 6.53925C29.2503 6.60033 30.8677 8.34237 31.1988 9.97446C31.3503 10.7221 31.371 11.4966 31.4627 12.3579ZM23.5942 10.9566H29.5129C29.4555 8.95929 28.4049 8.02475 26.3172 8.07972C25.5768 8.10681 24.8767 8.42344 24.3675 8.96147C23.8582 9.49951 23.5805 10.216 23.5942 10.9566Z" fill="white"/>
<path d="M52.7238 12.3942H44.8944C44.7552 14.1301 45.8913 15.3615 47.3438 15.524C48.6644 15.6731 49.9092 15.5582 50.6691 14.212C50.7179 14.124 50.8963 14.0703 51.016 14.0666C51.5217 14.0507 52.0287 14.0593 52.5723 14.0593C52.4942 15.193 51.8101 15.9345 50.9842 16.472C48.3235 18.2177 43.9904 17.4566 43.1658 13.589C42.6418 11.1164 43.1658 8.68658 45.2805 7.27194C46.9785 6.13705 50.3954 6.18225 51.9554 8.62916C52.6921 9.7665 52.8484 10.8256 52.7238 12.3942ZM50.9891 10.9783C50.8792 10.5044 50.7924 10.0988 50.691 9.69564C50.3649 8.40316 48.2673 7.75937 46.8857 8.2981C45.7374 8.74644 44.8517 9.87033 44.881 10.9783H50.9891Z" fill="white"/>
<path d="M56.3296 6.86344H58.355V8.5505C58.5591 8.27319 58.6702 8.12537 58.7777 7.97511C60.0665 6.19765 62.8091 6.26484 64.1138 7.13708C64.5495 7.4237 64.909 7.81201 65.1612 8.26852C65.4134 8.72503 65.5507 9.23603 65.5614 9.75747C65.6481 12.1494 65.5895 14.5462 65.5895 16.9724H63.7058C63.7058 16.7635 63.7058 16.5497 63.7058 16.3371C63.6777 14.4656 63.685 12.5941 63.6044 10.725C63.5641 9.79656 63.2379 8.93531 62.3534 8.43811C60.7653 7.54999 58.757 8.48697 58.3966 10.2901C58.3137 10.7278 58.2728 11.1725 58.2744 11.618C58.2598 13.3845 58.2683 15.1522 58.2683 16.9614H56.3296V6.86344Z" fill="white"/>
<path d="M9.12676 16.9871H7.13185C7.12085 16.7977 7.10497 16.6206 7.10375 16.4459C7.08787 14.5536 7.0842 12.6588 7.05733 10.769C7.0329 9.14178 6.30236 8.28542 4.82786 8.10951C3.57081 7.95925 2.30398 8.8889 1.96559 10.2388C1.87608 10.6125 1.83138 10.9955 1.83244 11.3798C1.819 13.2281 1.82633 15.0764 1.82633 16.9651H0V6.88666H1.79335V8.40025L1.64431 8.18525C2.08531 7.86762 2.53487 7.55978 2.96733 7.22871C4.12909 6.33815 6.59311 6.30639 7.72434 7.22871C8.69064 8.02155 9.10111 9.12223 9.11821 10.3426C9.14875 12.5379 9.12676 14.7332 9.12676 16.9871Z" fill="white"/>
<path d="M78.915 10.331H76.9677C76.7087 9.33777 76.1517 8.58892 75.0901 8.33482C73.0329 7.84617 71.1674 9.23027 71.1064 11.3547C71.0794 12.1216 71.1646 12.8883 71.3592 13.6306C71.6756 14.7972 72.6627 15.5021 73.8685 15.5632C74.7541 15.6096 75.6386 15.5387 76.3117 14.8791C76.6696 14.5272 76.9152 14.0618 77.2536 13.5878H79.0005C78.8625 14.9072 78.3286 15.9529 77.1974 16.6529C75.4627 17.7267 72.78 17.6448 71.1833 16.4C70.6626 16.0107 70.2271 15.519 69.9036 14.9551C69.58 14.3913 69.3753 13.7671 69.302 13.1211C69.1127 11.5428 69.2031 10.0146 70.0765 8.61091C71.0538 7.04112 72.543 6.52682 74.2753 6.56224C74.9418 6.57197 75.6031 6.6815 76.2372 6.88719C77.8314 7.42593 78.6255 8.64511 78.915 10.331Z" fill="white"/>
<path d="M35.0717 6.80305H36.8662V8.82973C38.0402 6.82138 39.2056 6.19957 40.8182 6.67723V8.47668C40.4224 8.50233 40.0253 8.53654 39.6271 8.5512C38.3908 8.59518 37.62 9.28417 37.2694 10.4007C37.0537 11.095 36.9305 11.8146 36.9029 12.541C36.8479 14.007 36.8858 15.4632 36.8858 16.9645H35.0717V6.80305Z" fill="white"/>
<path d="M97.2184 7.08194C97.6102 7.08194 97.8856 7.01134 98.0444 6.87015C98.2032 6.72543 98.2827 6.51894 98.2827 6.25068C98.2827 6.12007 98.265 6.00536 98.2297 5.90652C98.1979 5.80769 98.1432 5.7265 98.0656 5.66297C97.9914 5.59943 97.8908 5.55178 97.7638 5.52001C97.6402 5.48824 97.4867 5.47236 97.3031 5.47236H96.6095V7.08194H97.2184ZM97.3031 4.837C97.9138 4.837 98.3638 4.94819 98.6533 5.17056C98.9462 5.38941 99.0927 5.71415 99.0927 6.14478C99.0927 6.47658 98.9992 6.75897 98.8121 6.99193C98.625 7.2249 98.3444 7.38374 97.9703 7.46845C98.0303 7.50728 98.0815 7.55317 98.1238 7.60611C98.1697 7.65906 98.2121 7.72083 98.2509 7.79143L99.4581 9.55985H98.6692C98.5527 9.55985 98.468 9.51573 98.415 9.42748L97.3455 7.82849C97.3137 7.7826 97.2749 7.7473 97.229 7.7226C97.1867 7.69789 97.1196 7.68553 97.0278 7.68553H96.6095V9.55985H95.7836V4.837H97.3031ZM97.3667 10.5976C97.6773 10.5976 97.9756 10.5588 98.2615 10.4811C98.5509 10.3999 98.8192 10.287 99.0663 10.1423C99.3169 9.99401 99.5428 9.81752 99.744 9.6128C99.9487 9.40807 100.123 9.1804 100.268 8.92978C100.413 8.67564 100.524 8.40384 100.602 8.1144C100.683 7.82496 100.723 7.52316 100.723 7.20901C100.723 6.73602 100.635 6.29303 100.459 5.88005C100.286 5.46353 100.048 5.10173 99.744 4.79464C99.4439 4.48402 99.0892 4.24046 98.6798 4.06398C98.2703 3.88396 97.8326 3.79395 97.3667 3.79395C97.0561 3.79395 96.7578 3.83454 96.4719 3.91572C96.186 3.99691 95.9195 4.11163 95.6724 4.25988C95.4288 4.4046 95.2047 4.58109 95 4.78935C94.7988 4.9976 94.6258 5.2288 94.4811 5.48295C94.3399 5.73356 94.2305 6.00536 94.1528 6.29833C94.0751 6.5913 94.0363 6.89486 94.0363 7.20901C94.0363 7.52316 94.0751 7.82496 94.1528 8.1144C94.2305 8.40384 94.3399 8.67564 94.4811 8.92978C94.6258 9.1804 94.7988 9.40807 95 9.6128C95.2047 9.81752 95.4288 9.99401 95.6724 10.1423C95.9195 10.287 96.186 10.3999 96.4719 10.4811C96.7578 10.5588 97.0561 10.5976 97.3667 10.5976ZM97.3667 3.33331C97.7232 3.33331 98.0656 3.3792 98.3938 3.47097C98.7256 3.56275 99.0345 3.69335 99.3204 3.86278C99.6063 4.03221 99.8675 4.23517 100.104 4.47167C100.341 4.70463 100.542 4.96584 100.708 5.25528C100.877 5.54119 101.008 5.85005 101.099 6.18185C101.191 6.51012 101.237 6.8525 101.237 7.20901C101.237 7.56199 101.191 7.90438 101.099 8.23618C101.008 8.56445 100.877 8.87154 100.708 9.15745C100.542 9.44337 100.341 9.70457 100.104 9.94107C99.8675 10.174 99.6063 10.3752 99.3204 10.5447C99.0345 10.7141 98.7256 10.8447 98.3938 10.9365C98.0656 11.0282 97.7232 11.0741 97.3667 11.0741C97.0102 11.0741 96.6678 11.0282 96.3395 10.9365C96.0112 10.8447 95.7041 10.7141 95.4182 10.5447C95.1323 10.3752 94.8711 10.174 94.6346 9.94107C94.4017 9.70457 94.2005 9.44337 94.031 9.15745C93.8616 8.87154 93.731 8.56445 93.6392 8.23618C93.5474 7.90791 93.5016 7.56552 93.5016 7.20901C93.5016 6.8525 93.5474 6.51012 93.6392 6.18185C93.731 5.85005 93.8616 5.54119 94.031 5.25528C94.2005 4.96584 94.4017 4.70463 94.6346 4.47167C94.8711 4.23517 95.1323 4.03221 95.4182 3.86278C95.7041 3.69335 96.0112 3.56275 96.3395 3.47097C96.6678 3.3792 97.0102 3.33331 97.3667 3.33331Z" fill="white"/>
</svg>
