<svg xmlns="http://www.w3.org/2000/svg" width="102" height="23" fill="none"><path fill="#fff" d="M12.798 7.5c.122-.49.132-.518.51-.467q.274.017.549 0c.529 0 .63-.1.706-.611.265-1.733.804-3.33 2.565-4.154.821-.375 1.685-.367 2.518-.218 1.06.19 1.466 1.445.711 2.153-.244.234-.746.35-1.084.286-.27-.05-.49-.41-.7-.71-.103-.145-.204-.461-.256-.45-.218.041-.388.017-.61.29-.399.501-.448 1.207-.6 1.832-.121.488-.135.994-.21 1.588h2.59l-.162 1.24h-2.482c-.131 1.589-.245 3.107-.381 4.62-.156 1.698-.218 3.42-.536 5.083-.366 1.886-1.12 3.632-3.271 4.118-.643.145-1.396.206-2.035-.03-.203-.075-.592-.344-.675-.545a1.7 1.7 0 0 1 .04-1.312c.245-.501.679-.445 1.114-.408.732.063.72.645.764 1.398a1.84 1.84 0 0 0 .893-.636c.286-.366.47-1.088.534-1.658.252-2.21.446-4.427.649-6.643.102-1.129.142-2.266.282-3.39.061-.489-.122-.57-.512-.56-.324.008-.646 0-1.053 0 .049-.293.097-.555.142-.823zM91.286 14.17c-.1 1.02-.652 1.754-1.399 2.24-2.224 1.446-5.154 1.304-6.963-.58a4.28 4.28 0 0 1-1.156-2.552c-.17-1.562-.234-3.152.724-4.52 1.69-2.417 4.376-2.724 6.611-1.55 1.409.74 2.226 2.1 2.264 3.792.01.465 0 .93 0 1.458h-7.623c-.252 1.912 1.038 3.054 2.594 3.169 1.2.085 2.312-.11 2.995-1.287.06-.102.27-.157.414-.163.489-.015.976-.006 1.54-.006m-7.591-3.19h5.875c-.055-2.32-1.56-2.9-3-2.876-1.691.028-2.91 1.28-2.875 2.877M31.463 12.358h-7.805c-.237 1.595.799 2.968 2.396 3.167 1.314.164 2.51-.036 3.284-1.293a.5.5 0 0 1 .354-.165c.508-.018 1.014-.009 1.595-.009a3.53 3.53 0 0 1-1.61 2.425 5.33 5.33 0 0 1-6.515-.48c-1.222-1.111-1.552-2.617-1.509-4.208q.027-.822.215-1.624c.525-2.29 2.565-3.696 4.948-3.632 2.434.061 4.052 1.803 4.383 3.435.151.748.172 1.523.264 2.384m-7.869-1.401h5.919c-.058-1.998-1.108-2.932-3.196-2.877a2.827 2.827 0 0 0-2.723 2.877M52.724 12.394h-7.83c-.139 1.736.997 2.967 2.45 3.13 1.32.15 2.565.034 3.325-1.312.049-.088.227-.142.347-.145.506-.016 1.013-.008 1.556-.008-.078 1.134-.762 1.876-1.588 2.413-2.66 1.746-6.994.985-7.818-2.883-.524-2.473 0-4.902 2.115-6.317 1.697-1.135 5.114-1.09 6.674 1.357.737 1.138.893 2.197.769 3.765m-1.735-1.416c-.11-.474-.197-.88-.298-1.282-.326-1.293-2.424-1.937-3.805-1.398-1.149.448-2.034 1.572-2.005 2.68zM56.33 6.863h2.025V8.55c.204-.277.315-.425.423-.575 1.288-1.777 4.031-1.71 5.336-.838a3.22 3.22 0 0 1 1.447 2.62c.087 2.392.028 4.79.028 7.215h-1.883v-.635c-.028-1.871-.021-3.743-.102-5.612-.04-.928-.366-1.79-1.25-2.287-1.589-.888-3.597.049-3.957 1.852a7 7 0 0 0-.123 1.328c-.014 1.766-.006 3.534-.006 5.343H56.33zM9.127 16.987H7.132c-.011-.19-.027-.366-.028-.541-.016-1.892-.02-3.787-.047-5.677-.024-1.627-.755-2.484-2.23-2.66-1.256-.15-2.523.78-2.861 2.13a4.8 4.8 0 0 0-.134 1.14c-.013 1.85-.006 3.697-.006 5.586H0V6.887h1.793V8.4l-.149-.215c.441-.317.89-.625 1.323-.956 1.162-.89 3.626-.923 4.757 0 .967.793 1.377 1.893 1.394 3.114.03 2.195.009 4.39.009 6.644M78.915 10.331h-1.947c-.26-.993-.816-1.742-1.878-1.996-2.057-.489-3.923.895-3.984 3.02a7.9 7.9 0 0 0 .253 2.276c.317 1.166 1.304 1.871 2.51 1.932.885.047 1.77-.024 2.443-.684.358-.352.603-.817.942-1.291H79c-.138 1.32-.671 2.365-1.803 3.065-1.734 1.074-4.417.992-6.014-.253a4.76 4.76 0 0 1-1.881-3.279c-.19-1.578-.099-3.106.774-4.51.978-1.57 2.467-2.084 4.2-2.049.666.01 1.327.12 1.961.325 1.594.539 2.389 1.758 2.678 3.444M35.072 6.803h1.794V8.83c1.174-2.009 2.34-2.63 3.952-2.153v1.8c-.396.025-.793.06-1.19.074-1.237.044-2.008.733-2.359 1.85a8.3 8.3 0 0 0-.366 2.14c-.055 1.466-.017 2.922-.017 4.424h-1.814zM97.218 7.082q.589 0 .826-.212.24-.217.239-.62 0-.195-.053-.343a.5.5 0 0 0-.164-.244.7.7 0 0 0-.302-.143 2 2 0 0 0-.46-.048h-.695v1.61zm.085-2.245q.915 0 1.35.334.44.327.44.974 0 .498-.28.847-.282.35-.843.476.09.06.154.138.069.08.127.185l1.207 1.769h-.789q-.174 0-.254-.133l-1.07-1.599a.33.33 0 0 0-.116-.105.4.4 0 0 0-.201-.037h-.419V9.56h-.825V4.837zm.064 5.76q.466 0 .894-.116.435-.121.805-.339.376-.222.678-.53a3.3 3.3 0 0 0 .858-1.498q.121-.433.121-.905 0-.71-.264-1.329a3.4 3.4 0 0 0-.715-1.085q-.45-.467-1.064-.731-.615-.27-1.313-.27a3.26 3.26 0 0 0-1.695.466 3.3 3.3 0 0 0-1.19 1.223 3.537 3.537 0 0 0-.445 1.726q0 .471.116.905.117.435.328.816a3.4 3.4 0 0 0 1.191 1.212q.372.217.8.34.429.116.895.116m0-7.264q.534 0 1.027.138.498.138.926.392a3.96 3.96 0 0 1 1.388 1.392q.254.429.391.927.138.492.138 1.027a3.8 3.8 0 0 1-.529 1.948 3.8 3.8 0 0 1-.604.784 4 4 0 0 1-.784.604q-.428.255-.926.392a3.8 3.8 0 0 1-1.027.137 3.8 3.8 0 0 1-1.949-.53 4 4 0 0 1-.783-.603 4 4 0 0 1-.604-.784 3.8 3.8 0 0 1-.53-1.948q0-.535.138-1.027.138-.497.392-.927.254-.434.604-.783.354-.355.783-.61a3.8 3.8 0 0 1 1.949-.529"/></svg>